<svg xmlns="http://www.w3.org/2000/svg"  viewBox="0 0 16 16">
  <g id="그룹_13621" data-name="그룹 13621" transform="translate(-484 -525)">
    <rect id="사각형_58" data-name="사각형 58" width="16" height="16" transform="translate(484 525)" fill="transparent"/>
    <path id="패스_1" data-name="패스 1" d="M12.717,2.4H10.95V1.5h-.883v.9H6.534V1.5H5.65v.9H3.883a.9.9,0,0,0-.883.9v9.028a.9.9,0,0,0,.883.9h8.834a.9.9,0,0,0,.883-.9V3.306A.9.9,0,0,0,12.717,2.4Zm0,9.931H3.883V6.014h8.834Zm0-7.222H3.883V3.306H5.65v.9h.883v-.9h3.534v.9h.883v-.9h1.767Z" transform="translate(484 525.5)" fill="#333"/>
  </g>
</svg>
