<svg id="Logo_topmenu" xmlns="http://www.w3.org/2000/svg" xmlns:xlink="http://www.w3.org/1999/xlink" width="130" height="24" viewBox="0 0 130 24">
  <defs>
    <clipPath id="clip-path">
      <rect id="사각형_627" data-name="사각형 627" width="128.97" height="18" fill="none"/>
    </clipPath>
  </defs>
  <g id="그룹_15" data-name="그룹 15" transform="translate(0 3.924)">
    <g id="그룹_763" data-name="그룹 763" transform="translate(0 -0.924)" clip-path="url(#clip-path)">
      <path id="패스_885" data-name="패스 885" d="M111.494,39.01a2.682,2.682,0,0,0-4.973,2.012l2.516,6.218a2.682,2.682,0,1,0,4.972-2.012Z" transform="translate(-88.362 -31.027)" fill="#ed1b24" fill-rule="evenodd"/>
      <path id="패스_886" data-name="패스 886" d="M96.426,2.882a2.718,2.718,0,1,0-2.876,2.55,2.718,2.718,0,0,0,2.876-2.55" transform="translate(-75.62 0)" fill="#ed1b24" fill-rule="evenodd"/>
      <path id="패스_887" data-name="패스 887" d="M523.05,4.212V4.195h-4.161V2.353a1.678,1.678,0,0,0-3.356,0v8.895a7.417,7.417,0,0,0,2.216,5.26,7.064,7.064,0,0,0,4.966,2.054h.136a7.178,7.178,0,0,0,.2-14.347M522.786,15.2a3.73,3.73,0,0,1-2.706-1.093,3.981,3.981,0,0,1-1.19-2.822V7.55h3.485v.009h.338a3.823,3.823,0,0,1,.074,7.645" transform="translate(-428.43 -0.561)" fill="#ed1b24" fill-rule="evenodd"/>
      <path id="패스_888" data-name="패스 888" d="M183.828,20.271a5.692,5.692,0,0,0-3.913,1.638A5.7,5.7,0,0,0,176,20.271a5.58,5.58,0,0,0-3.985,1.634,5.874,5.874,0,0,0-1.744,4.149v6.9a1.678,1.678,0,0,0,3.356,0V25.93a2.3,2.3,0,0,1,2.411-2.3,2.37,2.37,0,0,1,2.2,2.382v6.948a1.678,1.678,0,0,0,3.356,0V25.93a2.3,2.3,0,0,1,2.411-2.3,2.37,2.37,0,0,1,2.2,2.382v6.948a1.678,1.678,0,0,0,3.355,0v-6.9a5.874,5.874,0,0,0-1.744-4.149,5.569,5.569,0,0,0-3.985-1.634" transform="translate(-141.504 -16.846)" fill="#ed1b24" fill-rule="evenodd"/>
      <path id="패스_889" data-name="패스 889" d="M405.283,20.271a5.693,5.693,0,0,0-3.919,1.638,5.7,5.7,0,0,0-3.919-1.638H397.4a5.576,5.576,0,0,0-3.94,1.637,5.867,5.867,0,0,0-1.739,4.14v6.911a1.678,1.678,0,1,0,3.356,0V25.931a2.3,2.3,0,0,1,2.416-2.3,2.339,2.339,0,0,1,2.192,2.376v6.954a1.678,1.678,0,1,0,3.356,0V25.931a2.3,2.3,0,0,1,2.416-2.3,2.339,2.339,0,0,1,2.193,2.376v6.954a1.678,1.678,0,1,0,3.355,0V26.048a5.866,5.866,0,0,0-1.739-4.14,5.593,5.593,0,0,0-3.983-1.637" transform="translate(-325.538 -16.846)" fill="#ed1b24" fill-rule="evenodd"/>
      <path id="패스_890" data-name="패스 890" d="M715.473,20.271h-1.4a6.313,6.313,0,0,0-6.313,6.313v6.375a1.678,1.678,0,0,0,3.356,0V26.584a2.957,2.957,0,0,1,2.957-2.958h1.4a1.678,1.678,0,0,0,0-3.355" transform="translate(-588.181 -16.846)" fill="#ed1b24" fill-rule="evenodd"/>
      <path id="패스_891" data-name="패스 891" d="M301.743,18.3a7.349,7.349,0,0,0-7.349,7.332s0,.006,0,.009v.017s0,.006,0,.009A7.349,7.349,0,0,0,301.743,33h3.743a1.664,1.664,0,0,0,1.664-1.664v-.052a1.669,1.669,0,0,0-1.664-1.664h-3.743a3.971,3.971,0,0,1-3.668-2.45h9.506a1.512,1.512,0,0,0,1.512-1.5s0-.006,0-.009V25.64s0-.006,0-.009a7.349,7.349,0,0,0-7.349-7.332m-3.668,5.829a3.971,3.971,0,0,1,7.337,0Z" transform="translate(-244.653 -15.207)" fill="#ed1b24" fill-rule="evenodd"/>
      <path id="패스_892" data-name="패스 892" d="M617.928,18.3a7.349,7.349,0,0,0-7.349,7.332s0,.006,0,.009v.017s0,.006,0,.009A7.349,7.349,0,0,0,617.928,33h3.743a1.664,1.664,0,0,0,1.664-1.664v-.052a1.669,1.669,0,0,0-1.664-1.664h-3.743a3.971,3.971,0,0,1-3.668-2.45h9.506a1.512,1.512,0,0,0,1.511-1.5s0-.006,0-.009V25.64s0-.006,0-.009a7.349,7.349,0,0,0-7.349-7.332m-3.668,5.829a3.971,3.971,0,0,1,7.337,0Z" transform="translate(-507.417 -15.207)" fill="#ed1b24" fill-rule="evenodd"/>
      <path id="패스_893" data-name="패스 893" d="M11.041,2.126A2.682,2.682,0,0,0,6.2,4.432l2.869,6.024c.571,1.736,1.071,5.156-5.1,2.623a2.678,2.678,0,0,0-.38-.16l-.019-.008v0a2.724,2.724,0,1,0,1.873,2.753l0,0s0-.013,0-.034,0-.055,0-.082c.041-.472.475-2.129,4.73.108a16.256,16.256,0,0,1,2.489,1.874v0a2.681,2.681,0,0,0,4.22-3.14Z" transform="translate(0 -0.497)" fill="#ed1b24" fill-rule="evenodd"/>
    </g>
  </g>
  <rect id="사각형_6325" data-name="사각형 6325" width="130" height="24" fill="none"/>
</svg>
